<?xml version="1.0" encoding="utf-8"?>
<!-- Generator: Adobe Illustrator 26.5.0, SVG Export Plug-In . SVG Version: 6.00 Build 0)  -->
<svg version="1.1" id="Layer_1" xmlns="http://www.w3.org/2000/svg" xmlns:xlink="http://www.w3.org/1999/xlink" x="0px" y="0px"
	 viewBox="0 0 900 768" style="enable-background:new 0 0 900 768;" xml:space="preserve">
<style type="text/css">
	.st0{fill:none;stroke:#415D86;stroke-width:2;stroke-miterlimit:10;}
	.st1{fill:#FFFFFF;}
	.st2{font-family:'ArialRoundedMTBold';}
	.st3{font-size:19.5052px;}
	.st4{enable-background:new    ;}
	.st5{font-size:19px;}
	.st6{letter-spacing:1;}
	.st7{fill:#13E271;}
	.st8{font-size:21px;}
	.st9{fill:none;stroke:#83868A;stroke-miterlimit:10;}
	.st10{fill:none;stroke:#415D86;stroke-width:2.5;stroke-linecap:round;stroke-linejoin:round;}
	.st11{fill:#415D86;}
	.st12{font-size:16px;}
	.st13{fill:#83868A;}
</style>
<path class="st0" d="M523.4,295.8"/>
<path d="M523.4,313.3"/>
<path d="M523.4,313.3"/>
<path class="st0" d="M523.4,411.3"/>
<g>
	<text transform="matrix(1 0 0 1 130.5559 475.3611)" class="st1 st2 st3">Public Transit</text>
</g>
<text transform="matrix(1 0 0 1 195.9976 168.0957)" class="st4"><tspan x="0" y="0" class="st1 st2 st5">Type </tspan><tspan x="50.1" y="0" class="st1 st2 st5 st6">1</tspan><tspan x="62.9" y="0" class="st1 st2 st5"> : </tspan><tspan x="78.3" y="0" class="st7 st2 st8">30</tspan><tspan x="103.3" y="0" class="st1 st2 st5"> minutes </tspan><tspan x="0" y="30" class="st1 st2 st5">Type 2:  </tspan><tspan x="76.8" y="30" class="st7 st2 st8">2</tspan><tspan x="89.3" y="30" class="st1 st2 st5"> times of driving time</tspan></text>
<g>
	<text transform="matrix(1 0 0 1 196.0002 117.9607)" class="st1 st2 st5">The Threshold</text>
</g>
<g>
	<g>
		<path class="st9" d="M180.5,424.1c-12.7,0-25.4,0-38.1,0v13.5h43.1v-5.5C185.5,432.1,187.4,424.1,180.5,424.1z"/>
		<rect x="148.1" y="427.9" class="st9" width="9.4" height="4.2"/>
		<path class="st9" d="M141.4,427.9"/>
		<path class="st9" d="M141.4,432.1"/>
		<polyline class="st9" points="142.4,427.9 146.1,427.9 146.1,432.1 142.4,432.1 		"/>
		<rect x="160.8" y="427.9" class="st9" width="9.4" height="4.2"/>
		<polyline class="st9" points="172.6,437.6 172.6,427.4 177.5,427.4 177.5,437.6 		"/>
		<polyline class="st9" points="180.5,424.1 180.5,432.1 185.5,432.1 		"/>
		<line class="st9" x1="152.8" y1="421.2" x2="163" y2="421.2"/>
		<circle class="st9" cx="146.2" cy="440" r="1.9"/>
		<circle class="st9" cx="153.8" cy="440" r="1.9"/>
		<circle class="st9" cx="171.6" cy="440" r="1.9"/>
		<circle class="st9" cx="179.2" cy="440" r="1.9"/>
		<line class="st9" x1="186.3" y1="442.5" x2="141.1" y2="442.5"/>
	</g>
</g>
<g>
	<g>
		<polyline class="st9" points="207.2,441 204.1,441 204.1,422.1 241.3,422.1 244.1,430.4 244.1,439.8 244.1,441 239.1,441 		"/>
		<line class="st9" x1="233.4" y1="441" x2="213" y2="441"/>
		<path class="st9" d="M242.1,424.4h-9.2v7.1c0,0,3.8,3.6,11.2,3.6"/>
		<rect x="206.2" y="424.4" class="st9" width="10.9" height="7.1"/>
		<line class="st9" x1="211.7" y1="424.4" x2="211.7" y2="431.5"/>
		<rect x="219.3" y="424.4" class="st9" width="10.9" height="7.1"/>
		<line class="st9" x1="224.7" y1="424.4" x2="224.7" y2="431.5"/>
		<circle class="st9" cx="210.2" cy="441.1" r="3.2"/>
		<circle class="st9" cx="236.2" cy="441.1" r="3.2"/>
		<polyline class="st9" points="232.9,435.6 233.6,436.3 234.6,435.3 		"/>
	</g>
</g>
<g>
	<text transform="matrix(1 0 0 1 489.3516 475.3611)" class="st1 st2 st3">Driving</text>
</g>
<g>
	<g>
		<path class="st1" d="M359.6,593c-3,0-5.5,2.5-5.5,5.5s2.5,5.5,5.5,5.5s5.5-2.5,5.5-5.5S362.6,593,359.6,593z"/>
		<path class="st1" d="M359.6,583.1c-8.5,0-15.5,7-15.5,15.5c0,1.4,0.2,2.8,0.6,4.2c0.1,0.5,0.3,1,0.5,1.5l0.5,1.1l14,25.8l14-25.8
			l0.5-1c0.2-0.5,0.4-1,0.5-1.5c0.4-1.3,0.6-2.7,0.6-4.2C375.1,590.1,368.1,583.1,359.6,583.1z M359.6,606.3c-4.4,0-8-3.6-8-8
			s3.6-8,8-8s8,3.6,8,8S364,606.3,359.6,606.3z"/>
	</g>
</g>
<g>
	<g>
		<polyline class="st10" points="196,482.8 196,499.1 196,522.9 196,632.9 325.8,632.9 		"/>
		<g>
			<polygon class="st11" points="323.2,641.6 338.3,632.9 323.2,624.2 			"/>
		</g>
	</g>
</g>
<polyline class="st10" points="338.3,281.2 196,281.2 196,408.3 "/>
<polyline class="st10" points="523.4,410.2 523.4,281.2 382,281.2 "/>
<g>
	<g>
		<polyline class="st10" points="394.3,632.9 523.4,632.9 523.4,493.9 523.4,482.8 		"/>
		<g>
			<polygon class="st11" points="396.8,641.6 381.7,632.9 396.8,624.2 			"/>
		</g>
	</g>
</g>
<g>
	<text transform="matrix(1 0 0 1 224.1 621.7348)" class="st1 st2 st12">30 minutes</text>
</g>
<g>
	<text transform="matrix(1 0 0 1 416.7935 621.7348)" class="st1 st2 st12">15 minutes</text>
</g>
<path class="st13" d="M538.6,429.2l-5.7-0.7l-3-4.9c-0.9-1.5-2.6-2.4-4.4-2.4h-10.3c-3,0-5.6,2-6.4,4.9l-0.1,0.3
	c-0.4,1.4-1.5,2.6-2.9,3c-1.2,0.3-2,1.4-2,2.6v7.1c0,0.4,0.3,0.6,0.6,0.6h3.3c0.4,1.9,2.1,3.4,4.2,3.4c2.1,0,3.8-1.5,4.2-3.4H530
	c0.4,1.9,2.1,3.4,4.2,3.4s3.8-1.5,4.2-3.4h3.4c0.3,0,0.6-0.2,0.6-0.6l0.5-4.4C543.3,431.9,541.3,429.5,538.6,429.2z M505.1,437.5
	h2.7c-0.1,0.3-0.1,0.5-0.1,0.8h-2.6V437.5z M511.9,441.7c-1.7,0-3-1.3-3-3s1.3-3,3-3c1.7,0,3,1.3,3,3S513.6,441.7,511.9,441.7z
	 M534.2,441.7c-1.7,0-3-1.3-3-3s1.3-3,3-3s3,1.3,3,3S535.9,441.7,534.2,441.7z M534.2,434.4c-1.4,0-2.7,0.7-3.5,1.8h-11.4
	c-0.4,0-0.6,0.3-0.6,0.6s0.3,0.6,0.6,0.6h10.8c-0.1,0.3-0.1,0.5-0.1,0.8h-13.8c-0.2-2.2-2-3.9-4.3-3.9c-1.4,0-2.7,0.7-3.5,1.8h-3.3
	v-4.4c0-0.6,0.4-1.2,1-1.4c1.9-0.5,3.3-2,3.8-3.9l0.1-0.3c0.6-2.3,2.8-3.9,5.2-3.9h10.3c1.3,0,2.6,0.7,3.3,1.8l3.2,5.2
	c0.1,0.2,0.3,0.3,0.5,0.3l6,0.7c1.4,0.2,2.5,1.1,3,2.2h-2c-0.4,0-0.6,0.3-0.6,0.6c0,0.4,0.3,0.6,0.6,0.6h2.3c0,0.2,0,0.3,0,0.5
	l-0.2,1.8h-3.8C536.9,435.1,535.6,434.4,534.2,434.4z M538.5,438.3c0-0.3-0.1-0.5-0.1-0.8h3l-0.1,0.8H538.5z"/>
<path class="st13" d="M525.6,430.8h-1.3c-0.4,0-0.6,0.3-0.6,0.6c0,0.4,0.3,0.6,0.6,0.6h1.3c0.4,0,0.6-0.3,0.6-0.6
	C526.2,431.1,525.9,430.8,525.6,430.8z"/>
<path class="st13" d="M517,431.4c0-0.4-0.3-0.6-0.6-0.6H515c-0.4,0-0.6,0.3-0.6,0.6c0,0.4,0.3,0.6,0.6,0.6h1.3
	C516.7,432,517,431.8,517,431.4z"/>
<path class="st13" d="M528.2,424.7c-0.6-0.9-1.6-1.5-2.6-1.5h-10.3c-2.1,0-3.9,1.4-4.4,3.4l-0.1,0.3c-0.2,0.8-0.5,2.1-0.5,2.1
	c0,0.2,0,0.4,0.1,0.5c0.1,0.2,0.3,0.2,0.5,0.2h19.4c0.2,0,0.4-0.1,0.6-0.3c0.1-0.2,0.1-0.4,0-0.6L528.2,424.7z M520.8,424.5v4h-5.9
	v-4c0.1,0,0.2,0,0.3,0H520.8L520.8,424.5z M511.9,427.2l0.1-0.3c0.2-0.9,0.8-1.6,1.6-2v3.6h-2C511.7,428.1,511.8,427.5,511.9,427.2z
	 M522.1,428.5v-4h3.5c0.6,0,1.2,0.3,1.5,0.9l1.9,3.2H522.1z"/>
<path class="st1" d="M365.3,251.1c2,0,3.6-1.6,3.6-3.6c0-2-1.6-3.6-3.6-3.6c-2,0-3.6,1.6-3.6,3.6
	C361.7,249.5,363.3,251.1,365.3,251.1z M372.3,262.1l-1.7-0.9l-0.7-2.2c-1.1-3.3-4.1-5.6-7.6-5.6c-2.7,0-4.1,0.7-6.9,1.9
	c-1.6,0.6-2.9,1.9-3.7,3.4l-0.5,1c-0.6,1.2-0.1,2.6,1.1,3.2c1.2,0.6,2.6,0.1,3.2-1.1l0.5-1c0.3-0.5,0.7-0.9,1.2-1.1l2-0.8l-1.1,4.5
	c-0.4,1.5,0,3.2,1.1,4.4l4.4,4.8c0.5,0.6,0.9,1.3,1.1,2.1l1.4,5.4c0.3,1.3,1.6,2,2.9,1.7c1.3-0.3,2-1.6,1.7-2.9l-1.6-6.6
	c-0.2-0.8-0.6-1.5-1.1-2.1l-3.4-3.7l1.3-5.1l0.4,1.2c0.4,1.2,1.2,2.2,2.4,2.7l1.7,0.9c1.2,0.6,2.6,0.1,3.2-1.1
	C373.9,264.2,373.4,262.7,372.3,262.1L372.3,262.1z M355.3,272.6c-0.2,0.6-0.6,1.1-1.1,1.6l-3.7,3.7c-0.9,0.9-0.9,2.4,0,3.4
	c0.9,0.9,2.4,0.9,3.4,0l4.4-4.4c0.5-0.5,0.8-1,1.1-1.6l1-2.5c-4.1-4.5-2.9-3.1-3.5-4C356.8,268.7,355.3,272.6,355.3,272.6z"/>
</svg>
